<mxfile host="app.diagrams.net" modified="2024-05-01T11:13:39.311Z" agent="Mozilla/5.0 (Windows NT 10.0; Win64; x64) AppleWebKit/537.36 (KHTML, like Gecko) Chrome/124.0.0.0 Safari/537.36" etag="wcwyPgHJndPo132kBXBL" version="24.3.1" type="device">
  <diagram name="Page-1" id="pUanN6CVQbGm9JBGeGc4">
    <mxGraphModel dx="3241" dy="738" grid="1" gridSize="10" guides="1" tooltips="1" connect="1" arrows="1" fold="1" page="1" pageScale="1" pageWidth="827" pageHeight="1169" math="0" shadow="0">
      <root>
        <mxCell id="0" />
        <mxCell id="1" parent="0" />
        <mxCell id="cPwPEIwOsvJeh78arhtC-10" style="edgeStyle=orthogonalEdgeStyle;rounded=0;orthogonalLoop=1;jettySize=auto;html=1;entryX=0;entryY=0.5;entryDx=0;entryDy=0;" edge="1" parent="1" source="cPwPEIwOsvJeh78arhtC-1" target="cPwPEIwOsvJeh78arhtC-5">
          <mxGeometry relative="1" as="geometry" />
        </mxCell>
        <mxCell id="cPwPEIwOsvJeh78arhtC-11" style="edgeStyle=orthogonalEdgeStyle;rounded=0;orthogonalLoop=1;jettySize=auto;html=1;entryX=0;entryY=0.75;entryDx=0;entryDy=0;" edge="1" parent="1" source="cPwPEIwOsvJeh78arhtC-1" target="cPwPEIwOsvJeh78arhtC-7">
          <mxGeometry relative="1" as="geometry" />
        </mxCell>
        <mxCell id="cPwPEIwOsvJeh78arhtC-12" style="edgeStyle=orthogonalEdgeStyle;rounded=0;orthogonalLoop=1;jettySize=auto;html=1;entryX=0;entryY=0.5;entryDx=0;entryDy=0;" edge="1" parent="1" source="cPwPEIwOsvJeh78arhtC-1" target="cPwPEIwOsvJeh78arhtC-8">
          <mxGeometry relative="1" as="geometry" />
        </mxCell>
        <mxCell id="cPwPEIwOsvJeh78arhtC-13" style="edgeStyle=orthogonalEdgeStyle;rounded=0;orthogonalLoop=1;jettySize=auto;html=1;entryX=0;entryY=0.75;entryDx=0;entryDy=0;" edge="1" parent="1" source="cPwPEIwOsvJeh78arhtC-1" target="cPwPEIwOsvJeh78arhtC-9">
          <mxGeometry relative="1" as="geometry" />
        </mxCell>
        <mxCell id="cPwPEIwOsvJeh78arhtC-18" style="edgeStyle=orthogonalEdgeStyle;rounded=0;orthogonalLoop=1;jettySize=auto;html=1;entryX=0;entryY=0.75;entryDx=0;entryDy=0;" edge="1" parent="1" source="cPwPEIwOsvJeh78arhtC-1" target="cPwPEIwOsvJeh78arhtC-17">
          <mxGeometry relative="1" as="geometry" />
        </mxCell>
        <mxCell id="cPwPEIwOsvJeh78arhtC-1" value="urls" style="rounded=0;whiteSpace=wrap;html=1;" vertex="1" parent="1">
          <mxGeometry x="-810" y="190" width="95" height="30" as="geometry" />
        </mxCell>
        <mxCell id="cPwPEIwOsvJeh78arhtC-2" value="&lt;b&gt;Documents&lt;/b&gt;" style="text;html=1;align=center;verticalAlign=middle;whiteSpace=wrap;rounded=0;" vertex="1" parent="1">
          <mxGeometry x="-792.5" y="140" width="60" height="30" as="geometry" />
        </mxCell>
        <mxCell id="cPwPEIwOsvJeh78arhtC-5" value="chunk 1" style="rounded=0;whiteSpace=wrap;html=1;" vertex="1" parent="1">
          <mxGeometry x="-460" y="110" width="90" height="30" as="geometry" />
        </mxCell>
        <mxCell id="cPwPEIwOsvJeh78arhtC-7" value="chunk 2" style="rounded=0;whiteSpace=wrap;html=1;" vertex="1" parent="1">
          <mxGeometry x="-460" y="160" width="90" height="30" as="geometry" />
        </mxCell>
        <mxCell id="cPwPEIwOsvJeh78arhtC-8" value="chunk 3" style="rounded=0;whiteSpace=wrap;html=1;" vertex="1" parent="1">
          <mxGeometry x="-460" y="210" width="90" height="30" as="geometry" />
        </mxCell>
        <mxCell id="cPwPEIwOsvJeh78arhtC-9" value="&lt;font style=&quot;font-size: 24px;&quot;&gt;...&lt;/font&gt;" style="rounded=0;whiteSpace=wrap;html=1;" vertex="1" parent="1">
          <mxGeometry x="-460" y="260" width="90" height="30" as="geometry" />
        </mxCell>
        <mxCell id="cPwPEIwOsvJeh78arhtC-14" value="&lt;b&gt;Splits&lt;/b&gt;" style="text;html=1;align=center;verticalAlign=middle;whiteSpace=wrap;rounded=0;" vertex="1" parent="1">
          <mxGeometry x="-445" y="70" width="60" height="30" as="geometry" />
        </mxCell>
        <mxCell id="cPwPEIwOsvJeh78arhtC-17" value="chunk n" style="rounded=0;whiteSpace=wrap;html=1;" vertex="1" parent="1">
          <mxGeometry x="-460" y="310" width="90" height="30" as="geometry" />
        </mxCell>
        <mxCell id="cPwPEIwOsvJeh78arhtC-19" value="&lt;b&gt;TextLoader&lt;/b&gt;&lt;div&gt;&lt;b&gt;UnstructuredURLLoader&lt;/b&gt;&lt;/div&gt;&lt;div&gt;&lt;b&gt;WebLoader&lt;/b&gt;&lt;/div&gt;" style="text;html=1;align=center;verticalAlign=middle;whiteSpace=wrap;rounded=0;" vertex="1" parent="1">
          <mxGeometry x="-792.5" y="390" width="60" height="30" as="geometry" />
        </mxCell>
        <mxCell id="cPwPEIwOsvJeh78arhtC-21" value="&lt;div&gt;&lt;b&gt;CharacterTextSplitter&lt;/b&gt;&lt;br&gt;&lt;/div&gt;&lt;div&gt;&lt;b&gt;RecursiveTextSplitter&lt;/b&gt;&lt;br&gt;&lt;/div&gt;&lt;b&gt;RecursiveCharacterTextSplitter&lt;/b&gt;" style="text;html=1;align=center;verticalAlign=middle;whiteSpace=wrap;rounded=0;" vertex="1" parent="1">
          <mxGeometry x="-508" y="365" width="190" height="80" as="geometry" />
        </mxCell>
        <mxCell id="cPwPEIwOsvJeh78arhtC-27" value="" style="shape=ext;double=1;rounded=1;whiteSpace=wrap;html=1;direction=south;" vertex="1" parent="1">
          <mxGeometry x="-249" y="107.5" width="130" height="232.5" as="geometry" />
        </mxCell>
        <mxCell id="cPwPEIwOsvJeh78arhtC-24" value="" style="image;html=1;image=img/lib/clip_art/computers/Database_128x128.png" vertex="1" parent="1">
          <mxGeometry x="-227.75" y="75" width="87.5" height="300" as="geometry" />
        </mxCell>
        <mxCell id="cPwPEIwOsvJeh78arhtC-28" value="&lt;b&gt;Vector DB&lt;/b&gt;" style="text;html=1;align=center;verticalAlign=middle;whiteSpace=wrap;rounded=0;" vertex="1" parent="1">
          <mxGeometry x="-219" y="60" width="60" height="30" as="geometry" />
        </mxCell>
        <mxCell id="cPwPEIwOsvJeh78arhtC-29" value="" style="html=1;shadow=0;dashed=0;align=center;verticalAlign=middle;shape=mxgraph.arrows2.arrow;dy=0.6;dx=40;notch=0;" vertex="1" parent="1">
          <mxGeometry x="-349" y="130" width="79" height="160" as="geometry" />
        </mxCell>
        <mxCell id="cPwPEIwOsvJeh78arhtC-30" value="&lt;b&gt;&lt;font style=&quot;font-size: 14px;&quot;&gt;FAISS&lt;/font&gt;&lt;/b&gt;" style="text;html=1;align=center;verticalAlign=middle;whiteSpace=wrap;rounded=0;" vertex="1" parent="1">
          <mxGeometry x="-219" y="380" width="60" height="30" as="geometry" />
        </mxCell>
        <mxCell id="cPwPEIwOsvJeh78arhtC-41" style="edgeStyle=orthogonalEdgeStyle;rounded=0;orthogonalLoop=1;jettySize=auto;html=1;exitX=1;exitY=0.75;exitDx=0;exitDy=0;" edge="1" parent="1" target="cPwPEIwOsvJeh78arhtC-39">
          <mxGeometry relative="1" as="geometry">
            <mxPoint x="135" y="270.5" as="sourcePoint" />
            <mxPoint x="282.49999999999955" y="210" as="targetPoint" />
            <Array as="points">
              <mxPoint x="135" y="210" />
            </Array>
          </mxGeometry>
        </mxCell>
        <mxCell id="cPwPEIwOsvJeh78arhtC-32" value="LLM&lt;div&gt;OpenAI&lt;/div&gt;" style="rounded=1;whiteSpace=wrap;html=1;" vertex="1" parent="1">
          <mxGeometry x="50" y="100" width="85" height="210" as="geometry" />
        </mxCell>
        <mxCell id="cPwPEIwOsvJeh78arhtC-39" value="Actor" style="shape=umlActor;verticalLabelPosition=bottom;verticalAlign=top;html=1;" vertex="1" parent="1">
          <mxGeometry x="310" y="120.5" width="70" height="120" as="geometry" />
        </mxCell>
        <mxCell id="cPwPEIwOsvJeh78arhtC-42" style="edgeStyle=orthogonalEdgeStyle;rounded=0;orthogonalLoop=1;jettySize=auto;html=1;entryX=0.999;entryY=0.381;entryDx=0;entryDy=0;entryPerimeter=0;" edge="1" parent="1" source="cPwPEIwOsvJeh78arhtC-39" target="cPwPEIwOsvJeh78arhtC-32">
          <mxGeometry relative="1" as="geometry" />
        </mxCell>
        <mxCell id="cPwPEIwOsvJeh78arhtC-44" value="" style="html=1;shadow=0;dashed=0;align=center;verticalAlign=middle;shape=mxgraph.arrows2.twoWayArrow;dy=0.6;dx=35;" vertex="1" parent="1">
          <mxGeometry x="-119" y="181" width="169" height="59.5" as="geometry" />
        </mxCell>
        <mxCell id="cPwPEIwOsvJeh78arhtC-45" value="&lt;b&gt;&lt;font style=&quot;font-size: 18px;&quot;&gt;query&lt;/font&gt;&lt;/b&gt;" style="text;html=1;align=center;verticalAlign=middle;whiteSpace=wrap;rounded=0;" vertex="1" parent="1">
          <mxGeometry x="180" y="151" width="80" height="30" as="geometry" />
        </mxCell>
        <mxCell id="cPwPEIwOsvJeh78arhtC-46" value="&lt;b&gt;&lt;font style=&quot;font-size: 18px;&quot;&gt;response&lt;/font&gt;&lt;/b&gt;" style="text;html=1;align=center;verticalAlign=middle;whiteSpace=wrap;rounded=0;" vertex="1" parent="1">
          <mxGeometry x="180" y="208.75" width="80" height="30" as="geometry" />
        </mxCell>
        <mxCell id="cPwPEIwOsvJeh78arhtC-47" value="&lt;b style=&quot;forced-color-adjust: none; color: rgb(0, 0, 0); font-family: Helvetica; font-size: 14px; font-style: normal; font-variant-ligatures: normal; font-variant-caps: normal; letter-spacing: normal; orphans: 2; text-indent: 0px; text-transform: none; widows: 2; word-spacing: 0px; -webkit-text-stroke-width: 0px; white-space: normal; background-color: rgb(251, 251, 251); text-decoration-thickness: initial; text-decoration-style: initial; text-decoration-color: initial;&quot;&gt;langchain: RetrievalQAWithSourcesChain&lt;/b&gt;" style="text;whiteSpace=wrap;html=1;align=center;" vertex="1" parent="1">
          <mxGeometry x="-20" y="320" width="240" height="40" as="geometry" />
        </mxCell>
        <mxCell id="cPwPEIwOsvJeh78arhtC-48" value="" style="rounded=0;whiteSpace=wrap;html=1;fillColor=none;" vertex="1" parent="1">
          <mxGeometry x="-900" y="30" width="1350" height="450" as="geometry" />
        </mxCell>
      </root>
    </mxGraphModel>
  </diagram>
</mxfile>
